<svg width="115" height="205" viewBox="0 0 115 205" fill="none" xmlns="http://www.w3.org/2000/svg">
<path d="M60.5575 44.2676C60.5575 44.2676 65.9093 49.0818 73.5575 55.2676" stroke="black" stroke-width="1.5" stroke-linecap="round" stroke-linejoin="round"/>
<path d="M70.0517 113.045C70.0517 113.045 89.5575 156.768 78.5575 204.268" stroke="black" stroke-width="1.5"/>
<path d="M61.0575 112.267C61.0575 112.267 65.5575 146.267 57.0575 202.767M15.0575 202.767C15.0575 202.767 13.4536 130.334 13.4536 99.1345" stroke="black" stroke-width="1.5"/>
<path d="M51.2739 13.4684V28.2373L32.9779 32.7343V7.81039L51.2739 3.31372V13.4684Z" fill="#EDEEEF"/>
<path d="M40.9387 18.5782C41.2088 18.5782 41.4278 18.3592 41.4278 18.0891C41.4278 17.8189 41.2088 17.5999 40.9387 17.5999C40.6685 17.5999 40.4495 17.8189 40.4495 18.0891C40.4495 18.3592 40.6685 18.5782 40.9387 18.5782Z" fill="black"/>
<path d="M48.4523 18.5782C48.7225 18.5782 48.9415 18.3592 48.9415 18.0891C48.9415 17.8189 48.7225 17.5999 48.4523 17.5999C48.1822 17.5999 47.9631 17.8189 47.9631 18.0891C47.9631 18.3592 48.1822 18.5782 48.4523 18.5782Z" fill="black"/>
<path d="M46.2482 21.0071V13.4683H50.0246" stroke="black" stroke-width="1.5" stroke-linecap="round" stroke-linejoin="round"/>
<path d="M40.0171 13.4686H43.7939" stroke="black" stroke-width="1.5" stroke-linecap="round" stroke-linejoin="round"/>
<path d="M34.1829 17.3311V19.9491C32.7707 19.9491 31.6259 18.8043 31.6259 17.3921C31.6259 17.3136 31.6293 17.2361 31.6363 17.1593C31.7796 15.5715 34.1829 15.7368 34.1829 17.3311Z" fill="#EDEEEF"/>
<path d="M34.1829 19.9491C32.7707 19.9491 31.6259 18.8043 31.6259 17.3921" stroke="black" stroke-width="1.5" stroke-linecap="round" stroke-linejoin="round"/>
<path d="M44.5962 22.8659C43.1669 22.8659 42.0082 21.7072 42.0082 20.2778" stroke="black" stroke-width="1.5" stroke-linecap="round" stroke-linejoin="round"/>
<path d="M51.274 28.2378L32.9778 32.7347" stroke="black" stroke-width="1.5" stroke-linecap="round" stroke-linejoin="round"/>
<path d="M46.248 21.0132L44.5962 21.4192" stroke="black" stroke-width="1.5" stroke-linecap="round" stroke-linejoin="round"/>
<path d="M34.1829 16.9668C34.1829 16.9668 36.5147 12.7128 36.6297 10.8158L37.262 13.4682C37.262 13.4682 41.5735 12.138 44.2178 8.86128V12.2338C44.2178 12.2338 49.3043 11.1607 50.6126 7.76904V10.9308C50.6126 10.9308 52.2084 9.83854 52.6108 8.17145" stroke="black" stroke-width="1.5" stroke-linecap="round" stroke-linejoin="round"/>
<path d="M51.274 13.8052C51.274 13.8052 60.57 3.94326 47.9632 1.21578C38.9292 -0.738739 34.1829 4.09008 34.1829 4.09008C34.1829 4.09008 31.0536 5.58471 29.7889 8.11409C28.5242 10.6435 28.0038 17.1394 32.9779 21.9682" stroke="black" stroke-width="1.5" stroke-linecap="round" stroke-linejoin="round"/>
<path d="M13.4536 59.1821V99.1347L70.0517 113.046V68.5493C70.0517 52.7717 59.2805 39.0325 43.9589 35.2667H43.9588C36.6111 33.4607 28.841 35.1327 22.8864 39.801C16.9318 44.4693 13.4536 51.6157 13.4536 59.1821V59.1821Z" stroke="black"/>
<path d="M51.274 89.3489C51.274 89.3489 51.3055 56.4435 70.0517 56.2331C88.798 56.0227 82.2743 34.5432 82.2743 34.5432L112.999 41.5021C112.999 41.5021 118.05 70.9641 92.1651 79.7976C78.9375 84.3118 84.5975 115.096 84.5975 115.096L50.6127 111.159V106.621" stroke="black" stroke-width="1.5"/>
<path d="M18.3018 44.499C18.3018 44.499 0.522266 67.7845 0.752211 95.1478C0.982156 122.511 43.2918 119.982 59.3879 98.1371C59.3879 98.1371 69.9653 90.7789 68.3557 89.1693C66.7461 87.5597 59.6998 89.0986 59.6998 89.0986C59.6998 89.0986 60.9975 85.3752 59.043 86.295C57.0884 87.2147 54.4688 89.1364 54.4688 89.1364L28.7788 90.8431L34.6362 66.8647" stroke="black" stroke-width="1.5" stroke-linecap="round" stroke-linejoin="round"/>
<path d="M18.3018 44.499C18.3018 44.499 0.522266 67.7845 0.752211 95.1478C0.982156 122.511 43.2918 119.982 59.3879 98.1371C59.3879 98.1371 69.9653 90.7789 68.3557 89.1693C66.7461 87.5597 59.6998 89.0986 59.6998 89.0986C59.6998 89.0986 60.9975 85.3752 59.043 86.295C57.0884 87.2147 54.4688 89.1364 54.4688 89.1364L28.7788 90.8431L34.6362 66.8647" stroke="black" stroke-width="1.5" stroke-linecap="round" stroke-linejoin="round"/>
<path d="M13.916 113.48V132.857C41.3364 126.418 55.0946 102.967 55.0946 102.967L55.0937 102.966C43.8983 113.533 26.0759 117.671 13.916 113.48Z" fill="black"/>
<path d="M79.3355 109.117C79.3355 109.117 99.1682 114.636 103.135 105.495C107.101 96.355 100.03 71.1761 100.03 71.1761C100.03 71.1761 102.1 66.6922 101.065 65.485C100.03 64.2778 98.9957 65.485 98.9957 65.485C98.9957 65.485 97.3574 57.552 94.8567 58.1556C92.3561 58.7592 90.5023 71.036 89.5575 80.7673" stroke="black" stroke-width="1.5" stroke-linecap="round" stroke-linejoin="round"/>
</svg>
